Coordinates
nRows=31
nColumns=12

# SIMM Motion File Header:
name Coordinates
datacolumns 12
datarows 31
otherdata 1
range 0.20000000000000001000 0.23000000000000001000
endheader
time	pelvis_tilt	hip_angle_r	knee_angle_r	tib_tx_r	tib_ty_r	pat_angle_r	pat_tx_r	pat_ty_r	ankle_angle_r	subtalar_angle_r	mtp_angle_r
      0.20000000000000001000	      0.00000000000003455153	     23.47300113850649300000	    -54.86936274821941600000	      0.00438591898361594120	     -0.47443079747937361000	     17.26390538552892600000	      0.04430796752682968800	     -0.02311400068643181000	      4.00839249128769030000	      0.00000000000000485603	      0.00000000000003804574
      0.20100000000000001000	      0.00000000000003473211	     23.53363961834927300000	    -54.62639272865377600000	      0.00436221390487710830	     -0.47435998156644321000	     17.25621564965361900000	      0.04437747297330185700	     -0.02312310302768324400	      4.02851034558843680000	      0.00000000000000493589	      0.00000000000003845286
      0.20200000000000001000	      0.00000000000003492555	     23.59222267677889900000	    -54.37768992187109500000	      0.00433714735049830350	     -0.47428796151503677000	     17.24796458179902800000	      0.04444830001568581000	     -0.02313245535291323300	      4.04942449207212720000	      0.00000000000000501874	      0.00000000000003884574
      0.20300000000000001000	      0.00000000000003511899	     23.65080573520852500000	    -54.12898711508841400000	      0.00431208079611949960	     -0.47421594146363033000	     17.23971351394443700000	      0.04451912705806977000	     -0.02314180767814322200	      4.07033863855581670000	      0.00000000000000510160	      0.00000000000003923863
      0.20400000000000001000	      0.00000000000003531714	     23.70833231661575300000	    -53.87740060467323400000	      0.00428631680596802850	     -0.47414333485014787000	     17.23116298786640100000	      0.04459060777488726300	     -0.02315128821691163000	      4.09161278455624710000	      0.00000000000000518816	      0.00000000000003962890
      0.20500000000000002000	      0.00000000000003551999	     23.76480242100057400000	    -53.62293039062555500000	      0.00425985538004388950	     -0.47407014167458938000	     17.22231300356492100000	      0.04466274216613830300	     -0.02316089696921845600	      4.11324693007341930000	      0.00000000000000527841	      0.00000000000004001656
      0.20600000000000002000	      0.00000000000003572284	     23.82127252538540000000	    -53.36846017657787700000	      0.00423339395411975130	     -0.47399694849903090000	     17.21346301926344000000	      0.04473487655738934300	     -0.02317050572152527800	      4.13488107559059160000	      0.00000000000000536866	      0.00000000000004040421
      0.20700000000000002000	      0.00000000000003592207	     23.87557249753863800000	    -53.10819309315856200000	      0.00420550674087441860	     -0.47392261686685971000	     17.20397452411461400000	      0.04480830165113344100	     -0.02318037759843568100	      4.15713557604776530000	      0.00000000000000544087	      0.00000000000004083117
      0.20800000000000002000	      0.00000000000003612129	     23.92987246969188000000	    -52.84792600973924700000	      0.00417761952762908500	     -0.47384828523468847000	     17.19448602896578700000	      0.04488172674487754500	     -0.02319024947534608500	      4.17939007650493900000	      0.00000000000000551307	      0.00000000000004125812
      0.20899999999999999000	      0.00000000000003631938	     23.98306138249269600000	    -52.58475290709474600000	      0.00414900586541549090	     -0.47377340484360514000	     17.18465762554935200000	      0.04495578639265867400	     -0.02320025622673670800	      4.20188168547691370000	      0.00000000000000557988	      0.00000000000004169873
      0.20999999999999999000	      0.00000000000003651633	     24.03513923594108800000	    -52.31867378522503000000	      0.00411966575423363190	     -0.47369797569360972000	     17.17448931386531200000	      0.04503048059447684700	     -0.02321039785260755500	      4.22461040296369020000	      0.00000000000000564128	      0.00000000000004215301
      0.21099999999999999000	      0.00000000000003671328	     24.08721708938948000000	    -52.05259466335532200000	      0.00409032564305177380	     -0.47362254654361430000	     17.16432100218126800000	      0.04510517479629501400	     -0.02322053947847840500	      4.24733912045046760000	      0.00000000000000570269	      0.00000000000004260728
      0.21199999999999999000	      0.00000000000003690674	     24.13702387595656900000	    -51.78069909711025100000	      0.00405950937147999110	     -0.47354606602943478000	     17.15342974234657100000	      0.04518111262483921800	     -0.02323095755176458500	      4.27041744354060880000	      0.00000000000000574800	      0.00000000000004306080
      0.21299999999999999000	      0.00000000000003710019	     24.18683066252365800000	    -51.50880353086518000000	      0.00402869309990820830	     -0.47346958551525520000	     17.14253848251187400000	      0.04525705045338341400	     -0.02324137562505077000	      4.29349576663075090000	      0.00000000000000579331	      0.00000000000004351432
      0.21400000000000000000	      0.00000000000003729469	     24.23547463807059900000	    -51.23399748987482400000	      0.00399712859702565630	     -0.47339260347316559000	     17.13126304168240900000	      0.04533359694565830500	     -0.02325193552467938500	      4.31678992536918570000	      0.00000000000000583292	      0.00000000000004398600
      0.21500000000000000000	      0.00000000000003749024	     24.28295580259739200000	    -50.95628097413919700000	      0.00396481586283233340	     -0.47331511990316583000	     17.11960341985818300000	      0.04541075210166389100	     -0.02326263725065043700	      4.34029991975591220000	      0.00000000000000586682	      0.00000000000004447583
      0.21600000000000000000	      0.00000000000003768579	     24.33043696712418200000	    -50.67856445840356400000	      0.00393250312863901130	     -0.47323763633316607000	     17.10794379803395400000	      0.04548790725766947700	     -0.02327333897662149000	      4.36380991414263870000	      0.00000000000000590073	      0.00000000000004496566
      0.21700000000000000000	      0.00000000000003786650	     24.37553669646803600000	    -50.39502785834415700000	      0.00389867748010503700	     -0.47315920175369436000	     17.09546827488290800000	      0.04556625109907384800	     -0.02328433187864914100	      4.38793566730296990000	      0.00000000000000593203	      0.00000000000004547097
      0.21800000000000000000	      0.00000000000003804720	     24.42063642581188900000	    -50.11149125828475100000	      0.00386485183157106230	     -0.47308076717422265000	     17.08299275173185800000	      0.04564459494047821300	     -0.02329532478067679300	      4.41206142046330110000	      0.00000000000000596333	      0.00000000000004597627
      0.21900000000000000000	      0.00000000000003822428	     24.46451982684208600000	    -49.82504917323564100000	      0.00383026375971236720	     -0.47300188538006821000	     17.07008449697917700000	      0.04572351725014472300	     -0.02330646714380096500	      4.43654135177221410000	      0.00000000000000600046	      0.00000000000004648767
      0.22000000000000000000	      0.00000000000003839773	     24.50718689955862600000	    -49.53570160319682700000	      0.00379491326452895130	     -0.47292255637123115000	     17.05674351062485900000	      0.04580301802807337800	     -0.02331775896802165300	      4.46137546122970980000	      0.00000000000000604340	      0.00000000000004700518
      0.22100000000000000000	      0.00000000000003857118	     24.54985397227516200000	    -49.24635403315800600000	      0.00375956276934553580	     -0.47284322736239409000	     17.04340252427054000000	      0.04588251880600203300	     -0.02332905079224234500	      4.48620957068720470000	      0.00000000000000608635	      0.00000000000004752268
      0.22200000000000000000	      0.00000000000003875291	     24.59004360224832900000	    -48.95121550906666400000	      0.00372268070109899340	     -0.47276306572168647000	     17.02914462659259700000	      0.04596314099322393300	     -0.02334064941523084400	      4.51170606403858710000	      0.00000000000000613223	      0.00000000000004806465
      0.22300000000000000000	      0.00000000000003893464	     24.63023323222149200000	    -48.65607698497532100000	      0.00368579863285245150	     -0.47268290408097885000	     17.01488672891465400000	      0.04604376318044582600	     -0.02335224803821934700	      4.53720255738996860000	      0.00000000000000617810	      0.00000000000004860661
      0.22400000000000000000	      0.00000000000003912017	     24.66916349794629700000	    -48.35805968466399200000	      0.00364815036783896040	     -0.47260235992425464000	     17.00014379613524800000	      0.04612492612209907700	     -0.02336400401782404500	      4.56299802501050780000	      0.00000000000000621813	      0.00000000000004915435
      0.22500000000000001000	      0.00000000000003930948	     24.70683439942273900000	    -48.05716360813267600000	      0.00360973590605852090	     -0.47252143325151380000	     16.98491582825437300000	      0.04620662981818368000	     -0.02337591735404494200	      4.58909246690020470000	      0.00000000000000625231	      0.00000000000004970786
      0.22600000000000001000	      0.00000000000003949880	     24.74450530089917800000	    -47.75626753160136000000	      0.00357132144427808150	     -0.47244050657877296000	     16.96968786037350100000	      0.04628833351426827500	     -0.02338783069026583900	      4.61518690878990160000	      0.00000000000000628648	      0.00000000000005026137
      0.22700000000000001000	      0.00000000000003969213	     24.77961814919237000000	    -47.44965384703368000000	      0.00353137917205796930	     -0.47235888633429579000	     16.95343467424238100000	      0.04637107639171242400	     -0.02340006696525288200	      4.64179721875439630000	      0.00000000000000630458	      0.00000000000005083430
      0.22800000000000001000	      0.00000000000003988547	     24.81473099748555800000	    -47.14304016246600100000	      0.00349143689983785710	     -0.47227726608981863000	     16.93718148811126400000	      0.04645381926915657200	     -0.02341230324023992800	      4.66840752871889110000	      0.00000000000000632269	      0.00000000000005140722
      0.22900000000000001000	      0.00000000000004007711	     24.84854689311201200000	    -46.83359033909142300000	      0.00345073578472610390	     -0.47219533654307339000	     16.92038710430916400000	      0.04653705954169452800	     -0.02342470527956345600	      4.69520942539592580000	      0.00000000000000632642	      0.00000000000005199479
      0.23000000000000001000	      0.00000000000004026706	     24.88106583607173100000	    -46.52130437690996000000	      0.00340927582672270960	     -0.47211309769406007000	     16.90305152283608000000	      0.04662079720932629100	     -0.02343727308322347500	      4.72220290878550220000	      0.00000000000000631580	      0.00000000000005259699
